<svg width="31" height="32" viewBox="0 0 31 32" fill="none" xmlns="http://www.w3.org/2000/svg">
<path id="Vector" d="M15.5 0C6.93867 0 0 6.65 0 14.8571C0 18.4 1.2957 21.6429 3.45117 24.1929C2.69434 27.7929 0.163477 31 0.133203 31.0357C0 31.2 -0.0363281 31.4429 0.0423828 31.6571C0.121094 31.8714 0.290625 32 0.484375 32C4.49863 32 7.50781 29.7286 8.99727 28.3286C10.9771 29.2071 13.175 29.7143 15.5 29.7143C24.0613 29.7143 31 23.0643 31 14.8571C31 6.65 24.0613 0 15.5 0ZM7.75 17.1429C6.67832 17.1429 5.8125 16.1214 5.8125 14.8571C5.8125 13.5929 6.67832 12.5714 7.75 12.5714C8.82168 12.5714 9.6875 13.5929 9.6875 14.8571C9.6875 16.1214 8.82168 17.1429 7.75 17.1429ZM15.5 17.1429C14.4283 17.1429 13.5625 16.1214 13.5625 14.8571C13.5625 13.5929 14.4283 12.5714 15.5 12.5714C16.5717 12.5714 17.4375 13.5929 17.4375 14.8571C17.4375 16.1214 16.5717 17.1429 15.5 17.1429ZM23.25 17.1429C22.1783 17.1429 21.3125 16.1214 21.3125 14.8571C21.3125 13.5929 22.1783 12.5714 23.25 12.5714C24.3217 12.5714 25.1875 13.5929 25.1875 14.8571C25.1875 16.1214 24.3217 17.1429 23.25 17.1429Z" fill="#5F5F5F"/>
</svg>
