<svg width="31" height="32" viewBox="0 0 31 32" fill="none" xmlns="http://www.w3.org/2000/svg">
<path id="Vector" d="M31 9.21223V7.69114L29.0279 7.06271L28.8757 6.32002L30.2665 4.84178L29.5469 3.45637L27.5402 3.99197L27.042 3.45637L27.5609 1.44254L26.2393 0.614148L24.7654 2.11381L24.025 1.88529L23.5406 0H21.9768L21.5478 1.88529L20.7105 2.11381L19.3473 0.614148L18.0049 1.39969L18.5654 3.37782L18.0049 3.97768L16.0328 3.44209L15.2717 4.80607L16.704 6.30574L16.5033 7.04843L14.5312 7.60544L14.5105 9.1551L16.5033 9.69069L16.6694 10.5548L15.2786 11.9759L15.9982 13.297L18.0464 12.7614L18.5446 13.3756L17.9841 15.2966L19.3612 16.125L20.7036 14.6682L21.5062 14.8753L21.9699 16.9105L23.5337 16.9319L23.9973 14.8753L24.8 14.6253L26.2324 16.1678L27.644 15.3037L27.035 13.3042L27.5748 12.7257L29.5676 13.3542L30.2804 11.9188L28.8342 10.5762L28.9864 9.71212L31 9.21223ZM22.7518 12.4401C20.5859 12.4401 18.8214 10.6262 18.8214 8.38384C18.8214 6.14149 20.579 4.32761 22.7518 4.32761C24.9246 4.32761 26.6821 6.14149 26.6821 8.38384C26.6821 10.6333 24.9246 12.4401 22.7518 12.4401ZM27.7547 13.6112L31 14.6467V17.4961L27.1873 18.453L26.9036 20.0741L29.5953 22.595L28.2667 25.3015L24.5301 24.1089L23.5199 25.1944L24.6754 28.9435L22.0252 30.5646L19.3335 27.6724L17.8319 28.1437L16.96 32L14.0261 31.9643L13.1542 28.1366L11.6527 27.7367L9.13393 30.4789L6.54598 28.9293L7.59777 25.3229L6.64978 24.1732L2.80937 25.1801L1.44621 22.6949L4.06875 20.0241L3.73661 18.3959L0 17.389L0.0345982 14.4682L3.73661 13.4184L4.13103 12.0116L1.43929 9.19795L2.87165 6.64137L6.58058 7.64829L7.63237 6.52711L6.58058 2.81366L9.09933 1.33542L11.6458 4.14907L13.2165 3.71346L14.0192 0H16.9531L17.7558 3.27784L16.192 2.85651L15.756 2.7351L15.5277 3.14216L14.7665 4.50614L14.5382 4.90605L14.8565 5.23455L16.0466 6.47713L16.0259 6.54854L14.379 7.01272L13.95 7.13412L13.9431 7.59116L13.9292 8.51239C10.6424 9.25508 8.16518 12.283 8.16518 15.9036C8.16518 20.0669 11.4382 23.4519 15.4792 23.4519C18.9737 23.4519 21.8937 20.9239 22.6203 17.5389L23.5337 17.5532L24.0112 17.5604L24.1219 17.0819L24.5094 15.368L24.6408 15.3252L25.8241 16.5963L26.1493 16.9462L26.5507 16.7034L27.9623 15.8393L28.3636 15.5894L28.2252 15.1252L27.7547 13.6112Z" fill="#5F5F5F"/>
</svg>
