<svg width="31" height="30" viewBox="0 0 31 30" fill="none" xmlns="http://www.w3.org/2000/svg">
<path id="Vector" d="M30.9301 23.5183C30.6146 24.276 29.2809 24.8327 26.8517 25.2209C26.7267 25.3946 26.6231 26.1362 26.4577 26.714C26.3593 27.0609 26.1173 27.2668 25.7234 27.2668L25.7054 27.2665C25.1366 27.2665 24.5428 26.997 23.3531 26.997C21.7473 26.997 21.1939 27.3737 19.9471 28.2802C18.6252 29.2424 17.3575 30.073 15.465 29.9879C13.549 30.1333 11.9518 28.9341 11.0529 28.2799C9.79875 27.3673 9.24693 26.9971 7.64771 26.9971C6.50556 26.9971 5.78675 27.2913 5.29535 27.2913C4.80656 27.2913 4.61644 26.9845 4.54324 26.7278C4.37959 26.1551 4.2766 25.4026 4.1483 25.2239C2.89625 25.0239 0.0729037 24.5169 0.000974331 23.2201C-0.00774438 23.0572 0.0422894 22.8966 0.141479 22.7693C0.240668 22.642 0.382029 22.5569 0.538447 22.5302C4.75146 21.8163 6.64906 17.3633 6.72795 17.1743C6.73243 17.1633 6.73733 17.1529 6.7423 17.1422C6.96711 16.6724 7.01742 16.279 6.89142 15.9734C6.58566 15.232 5.26441 14.966 4.70854 14.7396C3.27267 14.1558 3.07287 13.4851 3.15782 13.0254C3.30537 12.2253 4.47319 11.733 5.15598 12.0622C5.69599 12.3228 6.17576 12.4547 6.58167 12.4547C6.88573 12.4547 7.07888 12.3797 7.18471 12.3194C7.06102 10.0796 6.75477 6.87894 7.52904 5.09149C9.57388 0.372274 13.908 0.00554702 15.1868 0.00554702C15.244 0.00554702 15.7403 0 15.7989 0C18.9563 0 21.9901 1.6691 23.4716 5.0885C24.2452 6.87414 23.9408 10.0616 23.8164 12.3189C23.9122 12.3732 24.0802 12.4399 24.337 12.4522C24.7243 12.4344 25.1735 12.3033 25.6732 12.0622C26.0417 11.8849 26.5455 11.9089 26.9132 12.0659L26.915 12.0665C27.4887 12.2775 27.8498 12.7031 27.8588 13.1802C27.87 13.7877 27.3429 14.3124 26.292 14.7395C26.1638 14.7916 26.0078 14.8427 25.8419 14.8969C25.2487 15.0905 24.3525 15.3834 24.1093 15.9733C23.9834 16.279 24.0333 16.6721 24.2583 17.1418C24.2635 17.1523 24.2683 17.1631 24.2727 17.1739C24.3515 17.3628 26.2475 21.8147 30.4624 22.5299C30.8515 22.5958 31.1383 23.0208 30.9301 23.5183Z" fill="#5F5F5F"/>
</svg>
