<svg width="198" height="155" viewBox="0 0 198 155" fill="none" xmlns="http://www.w3.org/2000/svg">
<path id="Vector" d="M177.648 38.6288C177.773 40.324 177.773 42.0196 177.773 43.7148C177.773 95.4216 136.942 155 62.3149 155C39.3236 155 17.9659 148.582 0 137.442C3.26663 137.805 6.40718 137.926 9.79949 137.926C28.7701 137.926 46.2336 131.75 60.1791 121.215C42.3389 120.852 27.3883 109.59 22.2372 94.0898C24.7501 94.4529 27.2626 94.6952 29.9012 94.6952C33.5445 94.6952 37.1882 94.2106 40.5801 93.3633C21.9862 89.7302 8.0403 73.9882 8.0403 54.9765V54.4923C13.4424 57.3986 19.7247 59.2149 26.3828 59.4569C15.4526 52.4333 8.29167 40.4451 8.29167 26.8825C8.29167 19.6171 10.3015 12.9569 13.8194 7.14435C33.7955 30.8787 63.8224 46.3785 97.4922 48.0741C96.8641 45.1678 96.4871 42.1407 96.4871 39.1133C96.4871 17.5584 114.579 0 137.067 0C148.751 0 159.304 4.72264 166.717 12.3516C175.888 10.6563 184.683 7.38663 192.472 2.90627C189.457 11.9885 183.049 19.6174 174.632 24.4608C182.798 23.6136 190.713 21.4334 198 18.4064C192.473 26.1561 185.563 33.0581 177.648 38.6288Z" fill="url(#paint0_linear_16_607)"/>
<defs>
<linearGradient id="paint0_linear_16_607" x1="-18" y1="2.4576e-06" x2="204" y2="101" gradientUnits="userSpaceOnUse">
<stop offset="0.110849" stop-color="#F3F820" stop-opacity="0.92"/>
<stop offset="0.864086" stop-color="#E40202"/>
</linearGradient>
</defs>
</svg>
