<svg width="20" height="16" viewBox="0 0 20 16" fill="none" xmlns="http://www.w3.org/2000/svg">
<path d="M10.6753 0.350692L12.9188 4.6379C13.0904 4.96607 13.4621 5.19091 13.8888 5.22303L19.3541 5.63359C19.9725 5.709 20.2191 6.3444 19.7708 6.71028L15.6539 9.60799C15.3205 9.8426 15.1689 10.2113 15.2605 10.5674L16.4573 15.261C16.5623 15.7763 15.9172 16.1701 15.3639 15.9257L10.5936 13.5852C10.2269 13.405 9.77359 13.405 9.4069 13.5852L4.63664 15.9243C4.08495 16.1673 3.43825 15.7749 3.54325 15.2596L4.73998 10.566C4.82999 10.2099 4.67998 9.8412 4.34663 9.60659L0.228076 6.71168C-0.218614 6.3472 0.0280655 5.7104 0.644765 5.63499L6.11006 5.22442C6.53675 5.1923 6.90843 4.96747 7.08011 4.6393L9.32356 0.352089C9.60191 -0.11713 10.3986 -0.11713 10.6753 0.350692Z" fill="#FDD835"/>
</svg>
