<svg width="20" height="24" viewBox="0 0 20 24" fill="none" xmlns="http://www.w3.org/2000/svg">
<g id="&#240;&#159;&#166;&#134; emoji &#34;running shirt&#34;">
<path id="Vector" d="M13.0644 0C12.8044 0 12.5844 0.16 12.5044 0.42C12.2044 1.3 11.5244 2.38 9.50437 2.38C7.48437 2.38 6.80437 1.3 6.50437 0.42C6.42437 0.16 6.20437 0 5.94437 0C4.92437 0.64 4.48437 0.76 4.52437 1.36C4.78437 4.24 5.34437 8.16 9.48437 8.16C13.6244 8.16 14.0844 4.54 14.5644 2.32C14.8444 1.02 14.5244 0.74 13.0644 0Z" fill="#38A4DD"/>
<path id="Vector_2" opacity="0.2" d="M13.0443 0.66C13.5244 0.92 13.8443 1.12 13.9643 1.3C14.0443 1.4 14.1043 1.58 13.9643 2.22C13.9443 2.36 13.9044 2.5 13.8844 2.64C13.4444 4.84 12.8843 7.6 9.48435 7.6C5.96435 7.6 5.38435 4.38 5.12435 1.34V1.26C5.16435 1.18 5.48435 1 5.72435 0.86C5.80435 0.82 5.88435 0.76 5.98435 0.7C6.52435 2.2 7.72435 2.96 9.50435 2.96C11.3043 2.96 12.5043 2.2 13.0443 0.66ZM13.0643 0C12.8043 0 12.5844 0.16 12.4844 0.42C12.1844 1.3 11.5043 2.38 9.48435 2.38C7.46435 2.38 6.78435 1.3 6.48435 0.42C6.42435 0.16 6.20435 0 5.94435 0C4.92435 0.64 4.46435 0.76 4.52435 1.36C4.78435 4.24 5.34435 8.16 9.48435 8.16C13.6243 8.16 14.0843 4.54 14.5643 2.32C14.8443 1.02 14.5243 0.74 13.0643 0Z" fill="#444444"/>
<path id="Vector_3" d="M18.6444 19.16C18.2844 16 18.2244 12.8 18.4644 9.62001V9.54001C13.7044 14.28 7.18435 17.2 0.504354 18.04C0.464354 18.42 0.444354 18.78 0.384354 19.16L0.00435368 22.38C-0.0356463 22.72 0.204354 23.02 0.544354 23.04C0.544354 23.04 3.22435 23.98 9.50435 23.98C15.7844 23.98 18.4644 23.04 18.4644 23.04C18.8044 23.02 19.0444 22.7 19.0044 22.38C19.0444 22.38 18.6444 19.16 18.6444 19.16Z" fill="url(#paint0_linear_5_148)"/>
<path id="Vector_4" d="M18.4844 9.53999C18.4644 9.33999 18.3244 9.17999 18.1244 9.15999C16.6044 8.95999 15.9444 7.65999 15.8644 6.01999C11.7644 9.83999 6.38435 13.26 0.724353 13.52C0.724353 15.02 0.644353 16.54 0.524353 18.04C7.18435 17.2 13.7244 14.28 18.4844 9.53999Z" fill="url(#paint1_linear_5_148)"/>
<path id="Vector_5" d="M0.72434 13.52C6.38434 13.26 11.7643 9.82 15.8643 6.02V5.68L16.0643 1.14C16.0843 0.72 15.7843 0.36 15.3843 0.3L13.0643 0C13.0643 4.18 12.3243 6.4 9.50434 6.4C6.70434 6.4 5.94434 4.18 5.94434 0L3.68434 0.3C3.28434 0.36 2.98434 0.72 2.98434 1.14L3.18434 5.68C3.18434 7.48 2.54434 8.96 0.92434 9.16C0.70434 9.18 0.54434 9.4 0.56434 9.62C0.66434 10.92 0.72434 12.22 0.72434 13.52Z" fill="url(#paint2_linear_5_148)"/>
<path id="Vector_6" opacity="0.2" d="M13.6644 0.68L15.2844 0.9C15.3844 0.92 15.4644 1 15.4444 1.1L15.2444 5.64V5.66C15.2444 7.94 16.2044 9.42 17.8644 9.72C17.6244 12.88 17.6844 16.08 18.0444 19.24L18.4244 22.46C18.3644 22.46 18.3244 22.48 18.2644 22.5C18.2444 22.5 15.6244 23.42 9.50437 23.42C3.42437 23.42 0.764373 22.52 0.744373 22.5C0.704373 22.48 0.644373 22.48 0.604373 22.48L0.984373 19.26C1.34437 16.1 1.40437 12.92 1.16437 9.76C2.82437 9.46 3.78437 8 3.78437 5.7V5.68L3.58437 1.14C3.58437 1.04 3.64437 0.94 3.74437 0.94L5.34437 0.72C5.42437 4.04 6.08437 7 9.50437 7C12.9244 7 13.5844 4.04 13.6644 0.68ZM13.0644 0C13.0644 4.18 12.3244 6.4 9.50437 6.4C6.70437 6.4 5.94437 4.18 5.94437 0L3.68437 0.3C3.28437 0.36 2.98437 0.72 2.98437 1.14L3.18437 5.68C3.18437 7.48 2.54437 8.96 0.924373 9.16C0.704373 9.18 0.544373 9.4 0.564373 9.62C0.824373 12.8 0.764373 16 0.404373 19.18L0.0243732 22.4C-0.0156268 22.74 0.224373 23.04 0.564373 23.06C0.564373 23.06 3.24437 24 9.52437 24C15.8044 24 18.4844 23.06 18.4844 23.06C18.8244 23.04 19.0644 22.72 19.0244 22.4L18.6444 19.18C18.2844 16.02 18.2244 12.82 18.4644 9.64C18.4844 9.42 18.3244 9.2 18.1044 9.18C16.4844 8.98 15.8444 7.5 15.8444 5.7L16.0444 1.16C16.0644 0.74 15.7644 0.38 15.3644 0.32C15.3644 0.3 13.0644 0 13.0644 0Z" fill="#444444"/>
</g>
<defs>
<linearGradient id="paint0_linear_5_148" x1="9.50435" y1="9.98001" x2="9.50435" y2="21.5" gradientUnits="userSpaceOnUse">
<stop offset="0.2771" stop-color="#57C1EF"/>
<stop offset="0.7736" stop-color="#38A4DD"/>
</linearGradient>
<linearGradient id="paint1_linear_5_148" x1="0.795753" y1="16.78" x2="18.4524" y2="7.73999" gradientUnits="userSpaceOnUse">
<stop offset="0.2771" stop-color="#FEEA3A"/>
<stop offset="0.7736" stop-color="#FEDB27"/>
</linearGradient>
<linearGradient id="paint2_linear_5_148" x1="8.31394" y1="0.42" x2="8.31394" y2="11.18" gradientUnits="userSpaceOnUse">
<stop offset="0.2771" stop-color="#57C1EF"/>
<stop offset="0.7736" stop-color="#4BBAEB"/>
</linearGradient>
</defs>
</svg>
