<svg width="31" height="28" viewBox="0 0 31 28" fill="none" xmlns="http://www.w3.org/2000/svg">
<path id="Vector" d="M28.4231 16.4784L30.9673 5.10338C31.151 4.28209 30.5367 3.5 29.7078 3.5H8.56849L8.07518 1.04945C7.95226 0.438649 7.42332 0 6.80972 0H1.29167C0.57829 0 0 0.587617 0 1.3125V2.1875C0 2.91238 0.57829 3.5 1.29167 3.5H5.05273L8.83344 22.2816C7.92895 22.8102 7.31945 23.8012 7.31945 24.9375C7.31945 26.6289 8.66881 28 10.3333 28C11.9979 28 13.3472 26.6289 13.3472 24.9375C13.3472 24.0803 13.0003 23.3059 12.4418 22.75H23.7249C23.1664 23.3059 22.8195 24.0803 22.8195 24.9375C22.8195 26.6289 24.1688 28 25.8333 28C27.4979 28 28.8472 26.6289 28.8472 24.9375C28.8472 23.725 28.1536 22.6772 27.1477 22.181L27.4446 20.8534C27.6283 20.0321 27.0139 19.25 26.185 19.25H11.7389L11.3867 17.5H27.1636C27.7667 17.5 28.2895 17.076 28.4231 16.4784Z" fill="black"/>
</svg>
