<svg width="21" height="24" viewBox="0 0 21 24" fill="none" xmlns="http://www.w3.org/2000/svg">
<g id="&#240;&#159;&#166;&#134; emoji &#34;fire&#34;">
<path id="Vector" d="M4.00769 7.34687C3.88501 8.56295 3.79892 10.7151 4.57158 11.6312C4.57158 11.6312 4.20785 9.267 7.46851 6.3008C8.78138 5.10672 9.08485 3.48261 8.62642 2.26452C8.366 1.57448 7.89035 1.00444 7.47712 0.606412C7.23606 0.372396 7.42116 -0.0136304 7.77197 0.000370538C9.89409 0.0883765 13.3334 0.636413 14.7948 4.04464C15.4361 5.54075 15.4835 7.08685 15.1779 8.65896C14.9842 9.66303 14.2954 11.8952 15.8666 12.1692C16.9879 12.3652 17.5303 11.5372 17.7735 10.9411C17.8746 10.6931 18.2255 10.6311 18.4149 10.8291C20.3088 12.8312 20.4703 15.1894 20.0785 17.2195C19.321 21.1438 15.0444 24 10.7959 24C5.48844 24 1.26357 21.1778 0.168073 16.0695C-0.273139 14.0073 -0.0493042 9.92704 3.37277 7.04685C3.62674 6.83083 4.04212 7.02285 4.00769 7.34687Z" fill="url(#paint0_radial_5_107)"/>
<path id="Vector_2" d="M12.7351 10.685C10.7787 8.34487 11.6546 5.67469 12.1346 4.61062C12.1992 4.47061 12.027 4.3386 11.8914 4.42461C11.0499 4.95664 9.32591 6.20873 8.52312 7.97085C7.43623 10.353 7.51371 11.5191 8.15724 12.9432C8.54464 13.8012 8.09482 13.9833 7.86883 14.0153C7.6493 14.0473 7.44699 13.9113 7.28557 13.7692C6.82284 13.3592 6.48924 12.8252 6.32997 12.2491C6.29554 12.1251 6.12121 12.0911 6.04157 12.1931C5.43894 12.9672 5.12687 14.2093 5.1118 15.0873C5.06445 17.8015 7.47712 20.0017 10.3956 20.0017C14.0738 20.0017 16.7533 16.2214 14.6398 13.0612C14.0264 12.1411 13.4496 11.5391 12.7351 10.685Z" fill="url(#paint1_radial_5_107)"/>
</g>
<defs>
<radialGradient id="paint0_radial_5_107" cx="0" cy="0" r="1" gradientUnits="userSpaceOnUse" gradientTransform="translate(9.74474 24.0622) rotate(-179.769) scale(15.1922 23.1657)">
<stop offset="0.3144" stop-color="#FF9800"/>
<stop offset="0.6616" stop-color="#FF6D00"/>
<stop offset="0.9715" stop-color="#F44336"/>
</radialGradient>
<radialGradient id="paint1_radial_5_107" cx="0" cy="0" r="1" gradientUnits="userSpaceOnUse" gradientTransform="translate(10.5979 6.01249) rotate(90.6227) scale(14.7724 11.9626)">
<stop offset="0.2141" stop-color="#FFF176"/>
<stop offset="0.3275" stop-color="#FFF27D"/>
<stop offset="0.4868" stop-color="#FFF48F"/>
<stop offset="0.6722" stop-color="#FFF7AD"/>
<stop offset="0.7931" stop-color="#FFF9C4"/>
<stop offset="0.8221" stop-color="#FFF8BD" stop-opacity="0.804"/>
<stop offset="0.8627" stop-color="#FFF6AB" stop-opacity="0.529"/>
<stop offset="0.9101" stop-color="#FFF38D" stop-opacity="0.2088"/>
<stop offset="0.9409" stop-color="#FFF176" stop-opacity="0"/>
</radialGradient>
</defs>
</svg>
