<svg width="18" height="24" viewBox="0 0 18 24" fill="none" xmlns="http://www.w3.org/2000/svg">
<g id="&#240;&#159;&#166;&#134; emoji &#34;jeans&#34;">
<path id="Vector" d="M17.9983 23.0387L16.6854 11.7193V11.6793L15.9559 4.59974C15.9802 4.41975 15.9802 4.25976 15.9559 4.07977L15.7371 1.57991L15.6398 0H2.33989L2.26695 1.59991L2.09675 4.05977C2.07243 4.17976 2.07243 4.29975 2.07243 4.41975L1.31869 11.6593V11.6993L0.00571481 23.0387C-0.0429139 23.3187 0.224544 23.5586 0.589259 23.5986L5.08741 23.9986C5.45213 24.0186 5.76821 23.8186 5.79253 23.5386L7.49453 12.8393C7.54316 12.7193 7.56748 12.5793 7.59179 12.4393L8.51573 7.49957H8.97771C8.97771 7.49957 9.31811 7.49957 9.46399 7.49957L10.3879 12.4393C10.4123 12.5793 10.4366 12.6993 10.4852 12.8393L12.1872 23.5386C12.2358 23.8186 12.5519 24.0186 12.8923 23.9986L17.3905 23.5986C17.7795 23.5586 18.0226 23.3187 17.9983 23.0387Z" fill="url(#paint0_linear_5_140)"/>
<g id="Group">
<path id="Vector_2" d="M8.97771 6.15964C7.66473 6.15964 6.49764 5.99964 5.84116 5.41968C6.27881 6.25963 7.51885 6.85959 8.97771 6.85959C10.4366 6.85959 11.7009 6.25963 12.1143 5.41968C11.4578 5.99964 10.2907 6.15964 8.97771 6.15964Z" fill="#1E88E5"/>
<path id="Vector_3" d="M5.2333 0C5.20899 0.959945 5.0631 1.95989 4.60113 2.81984C4.16347 3.65979 3.14227 4.17976 2.04813 4.31975C2.04813 4.23976 2.07244 4.15976 2.07244 4.07977L2.09675 3.75978C3.96896 3.5198 4.45525 1.53991 4.50387 0H5.2333Z" fill="#1E88E5"/>
<path id="Vector_4" d="M15.81 2.37986H2.194L2.26694 1.5999V1.55991H15.7371V1.5799L15.81 2.37986Z" fill="#1E88E5"/>
<path id="Vector_5" d="M15.9802 4.31975C14.8618 4.19976 13.8163 3.65979 13.3786 2.81984C12.9166 1.95989 12.7707 0.959945 12.7464 0H13.4759C13.5245 1.53991 14.0108 3.5398 15.9073 3.75978L15.9316 4.07977C15.9559 4.15976 15.9802 4.23976 15.9802 4.31975Z" fill="#1E88E5"/>
<path id="Vector_6" d="M10.1448 6.49965H10.0962C9.90165 6.49965 9.73145 6.35965 9.73145 6.19966V2.0599C9.73145 1.89991 9.90165 1.75992 10.0962 1.75992H10.1448C10.3393 1.75992 10.5095 1.89991 10.5095 2.0599V6.19966C10.5095 6.35965 10.3636 6.49965 10.1448 6.49965Z" fill="#1E88E5"/>
<path id="Vector_7" d="M8.5887 0V6.23964C8.5887 6.39963 8.4185 6.53963 8.22398 6.53963H8.17535C7.98084 6.53963 7.81064 6.39963 7.81064 6.23964V0H8.5887Z" fill="#1E88E5"/>
</g>
<path id="Vector_8" d="M9.17222 1.37992C9.60193 1.37992 9.95028 1.11131 9.95028 0.779958C9.95028 0.448606 9.60193 0.179993 9.17222 0.179993C8.74251 0.179993 8.39417 0.448606 8.39417 0.779958C8.39417 1.11131 8.74251 1.37992 9.17222 1.37992Z" fill="#FDD835"/>
<path id="Vector_9" opacity="0.2" d="M14.9347 0.599966L15.0077 1.61991L15.2265 4.11976V4.15976C15.2508 4.27975 15.2508 4.39975 15.2265 4.51974V4.63973L15.9559 11.6993V11.7193V11.7593L17.2689 22.9987L12.941 23.3787L11.239 12.7393C11.239 12.7193 11.239 12.6793 11.2146 12.6593C11.166 12.5393 11.1417 12.4393 11.1417 12.3393V12.3193L10.1934 7.39958C10.1448 7.09959 9.82872 6.8996 9.46401 6.8996H9.4397C9.29381 6.8996 9.12361 6.8996 8.97772 6.8996C8.83184 6.8996 8.68595 6.8996 8.54006 6.8996H8.51575C8.15104 6.8996 7.85926 7.11959 7.78632 7.39958L6.86238 12.3393V12.3593C6.83806 12.4593 6.81375 12.5593 6.78943 12.6793C6.78943 12.6993 6.76512 12.7393 6.76512 12.7593L5.06311 23.3987L0.735161 22.9987L2.02382 11.7793V11.7393V11.7193L2.75325 4.47974C2.75325 4.45974 2.75325 4.43975 2.75325 4.39975C2.75325 4.29975 2.75325 4.21976 2.77757 4.13976C2.77757 4.11976 2.77757 4.09977 2.77757 4.09977L2.94777 1.63991V1.61991L3.04502 0.599966H14.8375H14.9347ZM15.6399 0H2.33991L2.26696 1.59991L2.09676 4.05977C2.07245 4.17976 2.07245 4.29975 2.07245 4.43975L1.34302 11.6793V11.7193L0.0057306 23.0387C-0.0185837 23.3187 0.22456 23.5587 0.589275 23.5986L5.08743 23.9786H5.16037C5.50077 23.9786 5.76823 23.7786 5.81686 23.5187L7.51886 12.8193C7.56749 12.6993 7.59181 12.5593 7.61612 12.4193L8.51575 7.49957H8.97772H9.46401L10.388 12.4393C10.4123 12.5793 10.4366 12.6993 10.4852 12.8393L12.1872 23.5387C12.2115 23.7986 12.5033 23.9986 12.8437 23.9986H12.9166L17.4148 23.6186C17.7795 23.5986 18.0227 23.3387 17.9983 23.0587L16.6854 11.7393V11.6993L15.9559 4.63973C15.9803 4.45974 15.9803 4.27976 15.9559 4.11976L15.7371 1.61991C15.7371 1.57991 15.6399 0 15.6399 0Z" fill="#424242"/>
</g>
<defs>
<linearGradient id="paint0_linear_5_140" x1="9" y1="2.44358" x2="9" y2="23.3682" gradientUnits="userSpaceOnUse">
<stop offset="0.2143" stop-color="#42A5F5"/>
<stop offset="0.334" stop-color="#4BAAF6"/>
<stop offset="0.5315" stop-color="#64B6F8"/>
<stop offset="0.6278" stop-color="#73BDF9"/>
<stop offset="0.7494" stop-color="#70BBF9"/>
<stop offset="0.8446" stop-color="#66B7F8"/>
<stop offset="0.9307" stop-color="#55AFF7"/>
<stop offset="1" stop-color="#42A5F5"/>
</linearGradient>
</defs>
</svg>
