<svg width="16" height="15" viewBox="0 0 16 15" fill="none" xmlns="http://www.w3.org/2000/svg">
<g id="&#240;&#159;&#166;&#134; emoji &#34;man&#34;">
<path id="Vector" d="M13.6391 7.40546H2.23576C1.00561 7.40546 0 8.23854 0 9.25744C0 10.2763 1.00561 11.1094 2.23576 11.1094H13.6407C14.8709 11.1094 15.8765 10.2763 15.8765 9.25744C15.8765 8.23854 14.8693 7.40546 13.6391 7.40546Z" fill="#E59600"/>
<path id="Vector_2" d="M7.93903 0.971527C4.30792 0.971527 0.944656 3.99082 0.944656 8.33707C0.944656 12.6596 4.41057 14.7959 7.93903 14.7959C11.4675 14.7959 14.9334 12.6596 14.9334 8.33707C14.9334 3.99207 11.5701 0.971527 7.93903 0.971527Z" fill="#FFCA28"/>
<path id="Vector_3" d="M4.51001 9.54678C5.0778 9.54678 5.53808 9.17603 5.53808 8.71869C5.53808 8.26134 5.0778 7.89059 4.51001 7.89059C3.94223 7.89059 3.48195 8.26134 3.48195 8.71869C3.48195 9.17603 3.94223 9.54678 4.51001 9.54678Z" fill="#404040"/>
<path id="Vector_4" d="M11.3681 9.54678C11.9358 9.54678 12.3961 9.17603 12.3961 8.71869C12.3961 8.26134 11.9358 7.89059 11.3681 7.89059C10.8003 7.89059 10.34 8.26134 10.34 8.71869C10.34 9.17603 10.8003 9.54678 11.3681 9.54678Z" fill="#404040"/>
<path id="Vector_5" d="M8.74417 10.2177C8.72172 10.2102 8.69927 10.2065 8.67681 10.204H7.20128C7.17882 10.2065 7.15637 10.2102 7.13391 10.2177C7.0008 10.2601 6.92702 10.3674 6.98957 10.4821C7.05372 10.5969 7.34723 10.9186 7.93904 10.9186C8.53086 10.9186 8.82437 10.5969 8.88852 10.4821C8.95107 10.3686 8.87729 10.2601 8.74417 10.2177Z" fill="#E59600"/>
<path id="Vector_6" d="M9.69525 11.5172C9.03125 11.824 6.85163 11.824 6.18764 11.5172C5.80592 11.3401 5.41619 11.6108 5.57497 11.8801C5.73054 12.1458 6.91899 12.7606 7.94706 12.7606C8.97512 12.7606 10.1491 12.1458 10.3047 11.8801C10.4619 11.6108 10.077 11.3414 9.69525 11.5172Z" fill="#795548"/>
<path id="Vector_7" d="M7.93902 0C7.93742 0 7.93742 0 7.93582 0C7.93421 0 7.93421 0 7.93261 0C-1.27988 0.038661 0.607847 8.21982 0.607847 8.21982C0.607847 8.21982 1.02164 9.06413 1.20929 9.43577C1.23655 9.4894 1.33599 9.48316 1.35203 9.42704C1.5493 8.74237 2.2566 6.3167 2.61426 5.57965C2.82436 5.1444 3.40495 4.89248 3.99196 4.97479C4.89493 5.102 6.33357 5.25914 7.91978 5.25914H7.93742H7.95506C9.54127 5.25914 10.9799 5.102 11.8829 4.97479C12.4699 4.89248 13.0505 5.1444 13.2606 5.57965C13.6166 6.31421 14.3191 8.72616 14.518 9.42081C14.534 9.47693 14.6351 9.48316 14.6623 9.42954L15.267 8.22107C15.2654 8.21982 17.1531 0.038661 7.93902 0Z" fill="#543930"/>
<path id="Vector_8" d="M15.2654 8.21982C15.2654 8.21982 17.1531 0.0374138 7.93902 0C7.93742 0 7.93742 0 7.93581 0C7.93421 0 7.93421 0 7.93261 0C7.78986 0.00124713 7.64873 0.00374138 7.51079 0.00748276C7.23654 0.0162127 6.9719 0.0324254 6.71689 0.0561208C6.71368 0.0561208 6.71208 0.0561208 6.70887 0.0573679C6.69123 0.058615 6.67519 0.0611093 6.65594 0.0636036C-1.09865 0.821858 0.607843 8.21982 0.607843 8.21982L1.21089 9.42954C1.23815 9.48316 1.33759 9.47817 1.35363 9.42205C1.55251 8.73114 2.2582 6.31546 2.61425 5.57965C2.82436 5.1444 3.40495 4.89248 3.99196 4.97479C4.89492 5.102 6.33357 5.25914 7.91977 5.25914H7.93742H7.95506C9.54126 5.25914 10.9799 5.102 11.8829 4.97479C12.4699 4.89248 13.0505 5.1444 13.2606 5.57965C13.6182 6.31795 14.3255 8.7486 14.5212 9.42954C14.5372 9.48566 14.6367 9.49189 14.6623 9.43827C14.85 9.06787 15.2654 8.21982 15.2654 8.21982Z" fill="url(#paint0_radial_3_38)"/>
<g id="Group">
<path id="Vector_9" d="M12.9398 7.41291C12.9414 7.41167 12.4651 6.83051 11.3633 6.83051C10.2614 6.83051 9.78507 7.41167 9.78507 7.41167L9.78667 7.41291C9.74818 7.45407 9.72412 7.5052 9.72412 7.56132C9.72412 7.701 9.87007 7.81574 10.0513 7.81574C10.0882 7.81574 10.1796 7.79454 10.1892 7.79204C10.8484 7.58003 11.3665 7.57878 11.3665 7.57878C11.3665 7.57878 11.8797 7.58003 12.5389 7.79204C12.5469 7.79454 12.6383 7.81574 12.6768 7.81574C12.8564 7.81574 13.004 7.70225 13.004 7.56132C13.0024 7.5052 12.9783 7.45407 12.9398 7.41291Z" fill="#6D4C41"/>
<path id="Vector_10" d="M6.08979 7.41291C6.0914 7.41167 5.61506 6.83051 4.51321 6.83051C3.41137 6.83051 2.93503 7.41167 2.93503 7.41167L2.93663 7.41291C2.89814 7.45407 2.87408 7.5052 2.87408 7.56132C2.87408 7.701 3.02003 7.81574 3.20127 7.81574C3.23816 7.81574 3.32958 7.79454 3.3376 7.79204C3.99838 7.58003 4.51482 7.57878 4.51482 7.57878C4.51482 7.57878 5.02805 7.58003 5.68723 7.79204C5.69525 7.79454 5.78667 7.81574 5.82356 7.81574C6.00319 7.81574 6.15074 7.70225 6.15074 7.56132C6.15234 7.5052 6.12829 7.45407 6.08979 7.41291Z" fill="#6D4C41"/>
</g>
</g>
<defs>
<radialGradient id="paint0_radial_3_38" cx="0" cy="0" r="1" gradientUnits="userSpaceOnUse" gradientTransform="translate(7.93639 6.79028) scale(7.72351 6.77563)">
<stop offset="0.7945" stop-color="#6D4C41" stop-opacity="0"/>
<stop offset="1" stop-color="#6D4C41"/>
</radialGradient>
</defs>
</svg>
