<svg width="23" height="23" viewBox="0 0 23 23" fill="none" xmlns="http://www.w3.org/2000/svg">
<g id="&#240;&#159;&#166;&#134; emoji &#34;glowing star&#34;">
<g id="Group">
<path id="Vector" d="M6.22151 5.99858L3.51119 4.30506C3.27735 4.16487 3.23901 3.84897 3.43261 3.66018L4.45041 2.66762C4.64592 2.47696 4.97561 2.51808 5.11553 2.75174L6.80995 5.43782C7.0323 5.80792 6.59719 6.22289 6.22151 5.99858Z" fill="#FFC107"/>
<path id="Vector_2" d="M3.85241 14.1447L0.705077 14.2064C0.430979 14.212 0.235468 14.4662 0.304472 14.7241L0.670575 16.0812C0.741495 16.3429 1.04626 16.4681 1.28777 16.3373L4.06901 14.9185C4.45236 14.7073 4.29327 14.1353 3.85241 14.1447Z" fill="#FFC107"/>
<path id="Vector_3" d="M11.1629 19.3579L10.4729 22.3468C10.4097 22.6067 10.6109 22.8571 10.885 22.8571H12.3245C12.6024 22.8571 12.8037 22.6011 12.7347 22.3394L11.9852 19.3505C11.8741 18.9336 11.2665 18.9392 11.1629 19.3579Z" fill="#FFC107"/>
<path id="Vector_4" d="M16.7791 5.99858L19.4894 4.30506C19.7232 4.16487 19.7616 3.84897 19.568 3.66018L18.5502 2.66762C18.3547 2.47696 18.025 2.51808 17.8851 2.75174L16.1906 5.43782C15.9683 5.80792 16.4034 6.22289 16.7791 5.99858Z" fill="#FFC107"/>
<path id="Vector_5" d="M19.1482 14.1447L22.2955 14.2064C22.5696 14.212 22.7652 14.4662 22.6962 14.7241L22.33 16.0812C22.2591 16.3429 21.9544 16.4681 21.7128 16.3373L18.9316 14.9185C18.5483 14.7073 18.7074 14.1353 19.1482 14.1447Z" fill="#FFC107"/>
</g>
<path id="Vector_6" d="M12.2766 0.46941L14.8566 6.20794C15.054 6.6472 15.4814 6.94815 15.9721 6.99114L22.2572 7.5407C22.9683 7.64163 23.252 8.49213 22.7364 8.98187L18.002 12.8605C17.6186 13.1745 17.4442 13.668 17.5496 14.1447L18.9259 20.4271C19.0466 21.1169 18.3048 21.644 17.6685 21.3169L12.1827 18.1841C11.761 17.9429 11.2396 17.9429 10.8179 18.1841L5.33214 21.315C4.69769 21.6403 3.95398 21.115 4.07474 20.4253L5.45098 14.1428C5.55449 13.6662 5.38198 13.1727 4.99862 12.8586L0.262288 8.98374C-0.251406 8.49587 0.0322754 7.6435 0.74148 7.54256L7.02657 6.99301C7.51726 6.95002 7.9447 6.64907 8.14213 6.20981L10.7221 0.471279C11.0422 -0.156781 11.9584 -0.156781 12.2766 0.46941Z" fill="#FDD835"/>
<path id="Vector_7" d="M12.0887 6.55187L11.6517 2.32368C11.6345 2.08816 11.5846 1.6844 11.9718 1.6844C12.2785 1.6844 12.4453 2.30686 12.4453 2.30686L13.7563 5.70137C14.2509 6.99301 14.0477 7.43601 13.5704 7.69771C13.0222 7.99678 12.2133 7.76313 12.0887 6.55187Z" fill="#FFFF8D"/>
<path id="Vector_8" d="M17.496 12.4848L21.2567 9.62302C21.4426 9.47161 21.778 9.23048 21.5097 8.9557C21.2969 8.73887 20.7219 9.05103 20.7219 9.05103L17.4308 10.3053C16.4494 10.6361 15.7977 11.1259 15.7402 11.7427C15.6654 12.5652 16.4226 13.1988 17.496 12.4848Z" fill="#F4B400"/>
</g>
</svg>
