<svg width="27" height="24" viewBox="0 0 27 24" fill="none" xmlns="http://www.w3.org/2000/svg">
<g id="&#240;&#159;&#166;&#134; emoji &#34;t-shirt&#34;">
<path id="Vector" d="M7.46384 0.0217984V0.0435969C7.46384 3.88011 8.94613 4.77384 13.0878 4.77384C17.2295 4.77384 18.7118 3.88011 18.7118 0.0435969C18.7118 0.0217985 18.7118 0 18.7118 0C18.7118 0 17.6219 1.08992 13.0224 1.08992C8.42296 1.08992 7.46384 0.0217984 7.46384 0.0217984Z" fill="#43A047"/>
<path id="Vector_2" d="M20.5647 24H5.61097C4.93523 24 4.41206 23.3897 4.52106 22.7139C4.52106 22.7139 4.67365 12.3161 4.69544 10.485C4.69544 10.2452 4.49926 10.0491 4.25948 10.0491C3.9325 10.0491 2.6464 10.4632 2.49381 10.4632H1.77446C1.20771 10.4632 0.728141 10.0491 0.662746 9.50409L0.00879496 4.16349C-0.0566001 3.66213 0.248577 3.18257 0.728141 3.00818C0.728141 3.00818 5.3058 0.0436033 7.81261 0.0436033H7.83441C7.83441 0.0436033 9.20771 2.92099 13.066 2.92099C16.9243 2.92099 18.4066 0.0218048 18.4066 0.0218048C20.9788 0.0218048 25.4257 2.98638 25.4257 2.98638C25.9053 3.16077 26.2104 3.64033 26.145 4.1417L25.4911 9.50409C25.4257 10.0491 24.9461 10.4632 24.4012 10.4632H23.66C23.5074 10.4632 22.1995 10.0491 21.8726 10.0491C21.6328 10.0491 21.4584 10.2452 21.4584 10.485C21.4366 12.2725 21.6328 22.6921 21.6328 22.6921C21.7636 23.3897 21.2404 24 20.5647 24Z" fill="url(#paint0_linear_5_128)"/>
<path id="Vector_3" d="M19.1478 0.0871936C17.9706 2.37602 15.6818 3.85831 13.0442 3.85831C10.4284 3.85831 8.13958 2.37602 6.94067 0.108992C7.24585 0.0435967 7.55103 0 7.81261 0H7.83441C7.83441 0 9.2077 2.87738 13.066 2.87738C16.9243 2.87738 18.4066 0.0217984 18.4066 0.0217984C18.6464 0.0217984 18.8862 0.0435969 19.1478 0.0871936Z" fill="#2E7D32"/>
<path id="Vector_4" opacity="0.2" d="M18.7554 0.697554C21.175 0.959135 25.0333 3.50954 25.0769 3.53134C25.1205 3.55314 25.1641 3.57494 25.2295 3.59674C25.4257 3.66213 25.5347 3.85832 25.5129 4.0545L24.8589 9.4169C24.8371 9.63488 24.6409 9.80927 24.4012 9.80927H23.7036C23.6164 9.78747 23.4202 9.74388 23.2459 9.70028C22.6137 9.52589 22.1559 9.4169 21.8944 9.4169H21.8508C21.2622 9.4387 20.8044 9.89646 20.8044 10.485C20.7826 12.2507 20.9788 22.2997 20.9788 22.7139V22.8229C21.0006 22.9973 20.9352 23.1281 20.8916 23.1717C20.848 23.2371 20.739 23.3243 20.5429 23.3243H5.61097C5.41479 23.3243 5.3058 23.2153 5.2622 23.1717C5.2186 23.1063 5.13141 22.9973 5.17501 22.8229C5.17501 22.7793 5.17501 22.7575 5.17501 22.7139C5.17501 22.6049 5.3276 12.2943 5.34939 10.485C5.34939 9.89646 4.89163 9.4169 4.28127 9.3951H4.23768C3.9543 9.3951 3.51833 9.50409 2.86438 9.70028C2.71179 9.74388 2.51561 9.80927 2.42841 9.80927H1.75266C1.53468 9.80927 1.3385 9.63488 1.2949 9.4169L0.662746 4.0763C0.640948 3.88012 0.749939 3.68393 0.946125 3.61854L1.07691 3.55314C1.12051 3.53134 5.08781 0.980933 7.44204 0.719352C7.44204 0.741151 7.46384 0.741151 7.46384 0.762949C7.52923 0.871941 7.63822 0.937336 7.74721 1.00273C8.55375 1.32971 10.1232 1.76567 13.0224 1.76567C16.0524 1.76567 17.6873 1.30791 18.4938 0.915538C18.6028 0.871941 18.69 0.784748 18.7554 0.697554ZM18.7118 0.0218048C18.6028 0.0218048 18.5156 0.0218048 18.4066 0.0218048C18.4066 0.0218048 18.3412 0.130797 18.2104 0.326982C17.5347 0.653957 16.0306 1.11172 13.0224 1.11172C10.1886 1.11172 8.72814 0.697554 8.03059 0.370579C7.8998 0.152595 7.83441 0.0218048 7.83441 0.0218048H7.81261C7.70362 0.0218048 7.59463 0.0218049 7.48563 0.0436033C7.46384 0.0218049 7.46384 0.0218048 7.46384 0.0218048C7.46384 0.0218048 7.46384 0.0218049 7.46384 0.0436033C4.91343 0.283385 0.728141 2.98638 0.728141 2.98638C0.248577 3.16077 -0.0566001 3.64033 0.00879496 4.1417L0.662746 9.50409C0.728141 10.0491 1.20771 10.4632 1.75266 10.4632H1.77446L2.49381 10.4414C2.6464 10.4414 3.9107 10.0273 4.25948 10.0273H4.28127C4.52106 10.0273 4.71724 10.2452 4.71724 10.4632C4.69544 12.2725 4.54285 22.6921 4.54285 22.6921C4.43386 23.3679 4.93523 23.9782 5.63277 23.9782H20.5865C21.2622 23.9782 21.7854 23.3679 21.6764 22.6921C21.6764 22.6921 21.4802 12.2507 21.502 10.4632C21.502 10.2234 21.6982 10.0273 21.9162 10.0273H21.9379C22.2867 10.0273 23.551 10.4632 23.7036 10.4632H24.4448C25.0115 10.4632 25.4693 10.0491 25.5347 9.50409L26.1886 4.1417C26.254 3.64033 25.9488 3.16077 25.4693 2.98638C25.4475 2.98638 21.3276 0.239788 18.7118 0.0218048Z" fill="#424242"/>
</g>
<defs>
<linearGradient id="paint0_linear_5_128" x1="13.0769" y1="24" x2="13.0769" y2="0.0217834" gradientUnits="userSpaceOnUse">
<stop offset="0.0036073" stop-color="#4CAF50"/>
<stop offset="1" stop-color="#81C784"/>
</linearGradient>
</defs>
</svg>
