<svg width="15" height="15" viewBox="0 0 15 15" fill="none" xmlns="http://www.w3.org/2000/svg">
<g id="&#240;&#159;&#166;&#134; emoji &#34;woman&#34;">
<path id="Vector" d="M7.38058 0C-0.0474231 0 0.011153 6.1119 0.011153 6.2087C0.011153 8.86939 0.165961 12.2672 0.807509 14.877H1.01671H1.23986H13.3163H13.5394H13.7486C14.3902 12.266 14.5436 8.86939 14.5436 6.20994C14.5422 6.1119 14.8086 0 7.38058 0Z" fill="#543930"/>
<path id="Vector_2" d="M7.27738 1.92105C4.16169 1.92105 1.27612 3.98234 1.27612 8.35437C1.27612 11.8651 3.71958 13.9426 5.84645 14.6127C6.35411 14.7728 6.84364 14.8535 7.27738 14.8535C7.70834 14.8535 8.19508 14.774 8.69995 14.6164C10.8296 13.95 13.2786 11.8713 13.2786 8.35561C13.2786 3.98234 10.3931 1.92105 7.27738 1.92105Z" fill="#FFCA28"/>
<path id="Vector_3" d="M0.994436 14.4936C1.07812 14.6462 1.16877 14.7715 1.26082 14.877H2.25382C2.1548 13.6658 1.92189 10.6998 1.88842 9.12254C1.87866 8.6522 1.71827 6.90985 2.82285 6.69019C6.87297 5.87982 9.16441 3.96869 9.16441 3.96869C9.75993 5.12654 11.6232 6.25584 12.2927 6.68523C12.8422 7.03767 12.7654 8.48963 12.7543 9.10765L12.248 14.877H13.3135C13.4084 14.7715 13.5018 14.6462 13.5869 14.4936C14.1239 13.5231 14.1406 6.20993 14.1406 6.20993C14.1406 6.20993 14.3247 0.476532 7.29137 0.476532C0.25805 0.476532 0.414253 6.20993 0.414253 6.20993C0.414253 6.20993 0.474224 13.5405 0.994436 14.4936Z" fill="#543930"/>
<path id="Vector_4" d="M7.38058 0C-0.0474231 0 0.011153 6.1119 0.011153 6.2087C0.011153 7.45962 0.0446252 8.87187 0.147831 10.2903L1.36538 10.2878C1.35561 9.81751 1.7252 6.90862 2.82978 6.68772C6.8799 5.87735 9.17134 3.96622 9.17134 3.96622C9.76686 5.12407 11.6301 6.25337 12.2996 6.68276C12.8491 7.0352 13.0736 9.67231 13.0625 10.2903H14.4027C14.4041 10.2816 14.4055 10.273 14.4069 10.2655C14.5073 8.85574 14.5422 7.45093 14.5422 6.2087C14.5422 6.1119 14.8086 0 7.38058 0Z" fill="url(#paint0_radial_3_22)"/>
<path id="Vector_5" d="M7.96775 10.3052C7.94823 10.2978 7.9301 10.294 7.91057 10.2916H6.64421C6.62469 10.294 6.60516 10.2978 6.58703 10.3052C6.47267 10.3462 6.40851 10.4529 6.4629 10.5646C6.5173 10.6775 6.76973 10.994 7.27739 10.994C7.78505 10.994 8.03749 10.6775 8.09188 10.5646C8.14627 10.4517 8.08212 10.3462 7.96775 10.3052Z" fill="#E59600"/>
<path id="Vector_6" d="M4.33465 9.63757C4.82145 9.63757 5.21608 9.27365 5.21608 8.82472C5.21608 8.3758 4.82145 8.01187 4.33465 8.01187C3.84785 8.01187 3.45322 8.3758 3.45322 8.82472C3.45322 9.27365 3.84785 9.63757 4.33465 9.63757Z" fill="#404040"/>
<path id="Vector_7" d="M10.2201 9.63757C10.7069 9.63757 11.1016 9.27365 11.1016 8.82472C11.1016 8.3758 10.7069 8.01187 10.2201 8.01187C9.73334 8.01187 9.33871 8.3758 9.33871 8.82472C9.33871 9.27365 9.73334 9.63757 10.2201 9.63757Z" fill="#404040"/>
<path id="Vector_8" d="M5.64423 7.36529C5.47687 7.16798 5.08776 6.88007 4.33464 6.88007C3.58152 6.88007 3.1924 7.16798 3.02504 7.36529C2.95113 7.45341 2.96926 7.55393 3.02086 7.61474C3.06828 7.67182 3.20914 7.72394 3.36534 7.67678C3.52155 7.62963 3.82559 7.48939 4.33464 7.48691C4.84369 7.49063 5.14913 7.62963 5.30393 7.67678C5.46014 7.72394 5.601 7.67182 5.64842 7.61474C5.70002 7.55393 5.71815 7.45341 5.64423 7.36529Z" fill="#6D4C41"/>
<path id="Vector_9" d="M11.5311 7.36529C11.3638 7.16798 10.9747 6.88007 10.2215 6.88007C9.46842 6.88007 9.07931 7.16798 8.91195 7.36529C8.83803 7.45341 8.85616 7.55393 8.90776 7.61474C8.95518 7.67182 9.09604 7.72394 9.25225 7.67678C9.40845 7.62963 9.71249 7.48939 10.2215 7.48691C10.7306 7.49063 11.036 7.62963 11.1908 7.67678C11.347 7.72394 11.4879 7.67182 11.5353 7.61474C11.5855 7.55393 11.6051 7.45341 11.5311 7.36529Z" fill="#6D4C41"/>
<path id="Vector_10" d="M8.78365 11.6083C8.21323 11.9098 6.34438 11.9098 5.77396 11.6083C5.44621 11.4345 5.11149 11.7001 5.24817 11.9644C5.38205 12.225 6.40156 12.8282 7.28299 12.8282C8.16442 12.8282 9.17137 12.225 9.30526 11.9644C9.44194 11.6989 9.1114 11.4345 8.78365 11.6083Z" fill="#795548"/>
<path id="Vector_11" d="M13.7696 14.8659C14.4014 12.2586 14.5534 8.88429 14.5534 6.23849C14.5534 6.14169 14.8212 0.0198669 7.3806 0.0198669C-0.0599559 0.0198669 1.50931e-05 6.14169 1.50931e-05 6.23849C1.50931e-05 8.88429 0.152034 12.2586 0.783819 14.8659H13.7696Z" fill="url(#paint1_radial_3_22)"/>
</g>
<defs>
<radialGradient id="paint0_radial_3_22" cx="0" cy="0" r="1" gradientUnits="userSpaceOnUse" gradientTransform="translate(7.33785 9.60567) scale(9.01877 9.73836)">
<stop offset="0.7945" stop-color="#6D4C41" stop-opacity="0"/>
<stop offset="1" stop-color="#6D4C41"/>
</radialGradient>
<radialGradient id="paint1_radial_3_22" cx="0" cy="0" r="1" gradientUnits="userSpaceOnUse" gradientTransform="translate(7.27751 8.98982) scale(8.62367 9.13218)">
<stop offset="0.7936" stop-color="#6D4C41" stop-opacity="0"/>
<stop offset="1" stop-color="#6D4C41"/>
</radialGradient>
</defs>
</svg>
